<svg id="Calque_1" data-name="Calque 1" xmlns="http://www.w3.org/2000/svg" viewBox="0 0 158.27 30"><defs><style>.cls-1{fill:#00bcd4;}.cls-2{fill:#448aff;}.cls-3{fill:#3f51b5;}.cls-4{isolation:isolate;font-size:21.09px;fill:#c4c3e2;font-family:Montserrat-ExtraBold, Montserrat;font-weight:800;}</style></defs><title>logo</title><path class="cls-1" d="M30,15a15,15,0,0,1-2.5,8.3,14.4,14.4,0,0,1-6.7,5.5,14.5,14.5,0,0,1-8.7.9A14.95,14.95,0,0,1,.3,17.9a14.85,14.85,0,0,1,.8-8.6A15,15,0,0,1,6.6,2.6,14.88,14.88,0,0,1,15,0V9.3a5.5,5.5,0,0,0-3.2,1,5.43,5.43,0,0,0-2.1,2.6,6.15,6.15,0,0,0-.3,3.3A5.58,5.58,0,0,0,11,19.1a6.38,6.38,0,0,0,2.9,1.6,6.15,6.15,0,0,0,3.3-.3,6.55,6.55,0,0,0,2.6-2.1,5.78,5.78,0,0,0,1-3.2H30Z" transform="translate(0)"/><path class="cls-2" d="M15,0a15.62,15.62,0,0,1,5.7,1.1,16.27,16.27,0,0,1,4.9,3.3,15.12,15.12,0,0,1,3.3,4.9A15.62,15.62,0,0,1,30,15H20.7a5.7,5.7,0,0,0-.4-2.2A4.63,4.63,0,0,0,19,11a7.07,7.07,0,0,0-1.8-1.2A5.38,5.38,0,0,0,15,9.4Z" transform="translate(0)"/><path class="cls-3" d="M30,15a15,15,0,0,1-5.8,11.9l-5.7-7.4a5.26,5.26,0,0,0,1.6-2,5.42,5.42,0,0,0,.6-2.5Z" transform="translate(0)"/><text class="cls-4" transform="translate(42.27 22.14)">MONLEAD</text></svg>